<?xml version="1.0" standalone="no"?>
<!DOCTYPE svg PUBLIC "-//W3C//DTD SVG 20010904//EN"
 "http://www.w3.org/TR/2001/REC-SVG-20010904/DTD/svg10.dtd">
<svg version="1.0" xmlns="http://www.w3.org/2000/svg"
 width="1401.000000pt" height="1401.000000pt" viewBox="0 0 1401.000000 1401.000000"
 preserveAspectRatio="xMidYMid meet">
<metadata>
Created by potrace 1.14, written by Peter Selinger 2001-2017
</metadata>
<g transform="translate(0.000000,1401.000000) scale(0.100000,-0.100000)"
fill="#000000" stroke="none">
<path d="M4858 14005 c-2 -1 -66 -6 -143 -10 -77 -4 -153 -9 -170 -10 -16 -1
-93 -5 -170 -9 -77 -4 -151 -9 -165 -11 -14 -2 -88 -6 -165 -10 -77 -3 -167
-8 -200 -10 -33 -3 -107 -7 -165 -10 -58 -3 -132 -8 -165 -12 -33 -3 -172 -7
-310 -8 -229 -1 -255 -3 -309 -23 -176 -65 -286 -166 -364 -335 -52 -110 -52
-127 -47 -809 8 -1008 15 -1490 21 -1528 14 -83 65 -203 160 -372 62 -109 57
-85 69 -343 3 -71 7 -150 10 -175 2 -25 6 -76 10 -115 3 -38 7 -90 10 -115 2
-25 7 -117 10 -205 4 -87 9 -163 12 -168 3 -5 7 -205 9 -445 2 -240 7 -491 12
-557 10 -148 7 -400 -8 -600 -12 -157 -15 -1127 -6 -1590 3 -143 8 -379 11
-525 9 -439 19 -597 51 -820 7 -45 69 -377 94 -500 10 -52 26 -144 35 -205 9
-60 32 -180 50 -266 19 -86 44 -216 55 -290 11 -74 24 -156 30 -184 5 -27 18
-108 30 -180 42 -261 53 -322 75 -415 13 -52 26 -111 29 -130 21 -131 99 -390
186 -615 23 -60 62 -163 87 -227 40 -104 88 -206 140 -301 36 -65 150 -218
217 -291 134 -148 446 -398 666 -532 318 -196 284 -176 438 -252 181 -90 251
-118 367 -145 262 -62 502 -77 1185 -72 261 2 500 7 530 10 30 3 132 14 225
25 94 11 193 22 220 24 75 8 179 23 280 41 162 28 199 34 249 40 49 6 226 41
258 51 11 3 26 -8 46 -38 16 -24 73 -88 127 -143 141 -146 178 -191 221 -275
48 -93 153 -202 241 -248 102 -54 174 -72 282 -72 131 0 200 14 292 61 65 32
106 61 235 168 7 5 45 26 85 47 91 45 162 93 255 171 39 33 101 75 139 94 101
49 201 153 254 261 22 46 45 106 51 133 17 72 14 230 -5 306 -15 58 -125 291
-212 447 l-36 64 130 131 c114 116 216 233 263 301 8 12 36 51 63 88 26 36 47
68 47 72 0 3 17 31 37 63 54 85 149 275 193 383 69 176 145 435 180 615 12 61
28 144 36 185 46 231 78 439 98 645 3 22 11 103 20 180 16 143 30 302 41 455
3 47 12 146 20 220 33 319 49 521 60 775 14 337 17 494 20 1122 2 375 5 685 8
690 22 36 30 1133 10 1398 -21 275 -25 368 -30 790 -5 450 -4 1277 2 1340 2
22 7 225 9 450 3 226 9 426 12 445 14 73 2 438 -17 515 -30 122 -121 235 -237
294 -98 50 -177 64 -317 58 -139 -7 -146 -8 -285 -47 -143 -39 -472 -105 -655
-129 -82 -12 -179 -25 -215 -31 -36 -6 -110 -17 -165 -25 -55 -8 -113 -17
-130 -19 -35 -5 -94 -12 -258 -27 -66 -6 -126 -12 -135 -14 -22 -4 -184 -24
-242 -30 -25 -2 -72 -9 -105 -14 -33 -5 -85 -12 -115 -16 -30 -3 -71 -8 -90
-10 -191 -24 -334 -34 -675 -51 -166 -7 -1297 -11 -1484 -5 l-174 6 -29 70
c-15 39 -33 88 -39 110 -6 22 -39 117 -74 210 -35 94 -96 260 -135 370 -90
250 -145 365 -207 430 -65 69 -98 92 -237 165 -186 97 -193 99 -420 98 -107 0
-196 -1 -198 -3z"/>
</g>
</svg>
